<svg xmlns="http://www.w3.org/2000/svg" width="28" height="28" viewBox="0 0 24 24" fill="none">
  <path d="M12 2.5c-5.2 0-9.5 4.3-9.5 9.6 0 4.2 2.7 7.8 6.4 9.1.5.1.7-.2.7-.5v-1.8c-2.6.6-3.2-1.1-3.2-1.1-.4-1.1-1-1.4-1-1.4-.9-.6.1-.6.1-.6 1 .1 1.5 1 1.5 1 .9 1.6 2.4 1.1 3 .9.1-.7.4-1.1.7-1.4-2.1-.2-4.2-1.1-4.2-4.8 0-1.1.4-2 1-2.7-.1-.2-.4-1.2.1-2.6 0 0 .8-.3 2.7 1a9.3 9.3 0 0 1 5 0c1.9-1.3 2.7-1 2.7-1 .5 1.4.2 2.4.1 2.6.6.7 1 1.6 1 2.7 0 3.8-2.2 4.6-4.3 4.8.4.3.7.9.7 1.8v2.7c0 .3.2.6.7.5a9.6 9.6 0 0 0 6.4-9.1c0-5.3-4.3-9.6-9.5-9.6Z" stroke="#111" stroke-width="1.2" fill="none"/>
</svg>
